<svg xmlns="http://www.w3.org/2000/svg" width="111.863" height="20.803" viewBox="0 0 111.863 20.803">
  <g id="logo-dark" transform="translate(-1.165 -6.26)">
    <path id="Path_1" data-name="Path 1" d="M13.51,6.425V17H10.57V11.165L8.575,17H6.115l-2.01-5.88V17H1.165V6.425H4.72L7.375,13.3,9.97,6.425ZM20.254,17.1a5.538,5.538,0,0,1-2.73-.69,5.327,5.327,0,0,1-1.98-1.935,5.5,5.5,0,0,1-.72-2.8,5.419,5.419,0,0,1,.72-2.79,5.181,5.181,0,0,1,1.98-1.935,5.746,5.746,0,0,1,5.46,0,5.074,5.074,0,0,1,1.965,1.935,5.419,5.419,0,0,1,.72,2.79,5.5,5.5,0,0,1-.72,2.8,5.215,5.215,0,0,1-1.965,1.935A5.538,5.538,0,0,1,20.254,17.1Zm0-2.73a2.233,2.233,0,0,0,1.77-.735,2.831,2.831,0,0,0,.66-1.965,2.819,2.819,0,0,0-.66-1.98,2.233,2.233,0,0,0-1.77-.735,2.251,2.251,0,0,0-1.785.735,2.861,2.861,0,0,0-.645,1.98,2.9,2.9,0,0,0,.645,1.98A2.274,2.274,0,0,0,20.254,14.375Zm19.082-7.95V17H36.4V11.165L34.4,17H31.94l-2.01-5.88V17H26.99V6.425h3.555L33.2,13.3,35.8,6.425Zm8.363,8.85h-3.75L43.379,17h-3.09L44.144,6.425h3.39L51.374,17h-3.1Zm-.735-2.25L45.824,9.6,44.7,13.025ZM60.3,6.425v2.34h-2.82V17h-2.94V8.765h-2.79V6.425Z" fill="#5833f1"/>
    <path id="Path_2" data-name="Path 2" d="M65.015,17.1a4.606,4.606,0,0,1-1.86-.36,3.177,3.177,0,0,1-1.275-1.02,2.649,2.649,0,0,1-.48-1.515h1.455a1.961,1.961,0,0,0,.6,1.245,2.23,2.23,0,0,0,1.56.495,2.262,2.262,0,0,0,1.53-.48,1.6,1.6,0,0,0,.57-1.26,1.422,1.422,0,0,0-.33-.975,2.108,2.108,0,0,0-.825-.57,12.891,12.891,0,0,0-1.335-.42,12.128,12.128,0,0,1-1.665-.54,2.765,2.765,0,0,1-1.065-.84,2.554,2.554,0,0,1-.435-1.56,2.69,2.69,0,0,1,.435-1.515A2.841,2.841,0,0,1,63.11,6.77a4.356,4.356,0,0,1,1.815-.36,3.754,3.754,0,0,1,2.4.735A2.706,2.706,0,0,1,68.39,9.1h-1.5a1.592,1.592,0,0,0-.63-1.05,2.214,2.214,0,0,0-1.47-.465,2.106,2.106,0,0,0-1.4.45,1.489,1.489,0,0,0-.54,1.23,1.361,1.361,0,0,0,.315.93,2.238,2.238,0,0,0,.8.555q.48.18,1.335.42a11.682,11.682,0,0,1,1.665.57,2.689,2.689,0,0,1,1.08.855,2.454,2.454,0,0,1,.45,1.56,2.752,2.752,0,0,1-.405,1.44,2.977,2.977,0,0,1-1.2,1.095A3.96,3.96,0,0,1,65.015,17.1ZM76.939,6.545v1.11h-2.85V17H72.724V7.655H69.859V6.545Zm3.015,0V13.16a2.818,2.818,0,0,0,.675,2.07,2.608,2.608,0,0,0,1.9.675,2.534,2.534,0,0,0,1.875-.675,2.78,2.78,0,0,0,.69-2.07V6.545h1.365v6.6a4.31,4.31,0,0,1-.525,2.2,3.3,3.3,0,0,1-1.425,1.32,4.463,4.463,0,0,1-2,.435,4.559,4.559,0,0,1-2.01-.435,3.318,3.318,0,0,1-1.41-1.32,4.412,4.412,0,0,1-.51-2.2v-6.6ZM92,6.545a6.346,6.346,0,0,1,2.955.645,4.382,4.382,0,0,1,1.92,1.815,5.542,5.542,0,0,1,.675,2.79,5.542,5.542,0,0,1-.675,2.79,4.406,4.406,0,0,1-1.92,1.8A6.6,6.6,0,0,1,92,17H88.741V6.545Zm0,9.33a4.185,4.185,0,0,0,3.09-1.065A4.109,4.109,0,0,0,96.151,11.8a4.149,4.149,0,0,0-1.08-3.045A4.1,4.1,0,0,0,92,7.655h-1.89v8.22Zm8.715-9.33V17H99.346V6.545Zm7.067,10.56a5.322,5.322,0,0,1-2.655-.675,5.122,5.122,0,0,1-1.9-1.905,5.543,5.543,0,0,1-.69-2.76,5.46,5.46,0,0,1,.69-2.745,4.98,4.98,0,0,1,1.9-1.905,5.482,5.482,0,0,1,5.325,0,4.9,4.9,0,0,1,1.89,1.89,5.49,5.49,0,0,1,.69,2.76,5.49,5.49,0,0,1-.69,2.76,5.012,5.012,0,0,1-1.89,1.905A5.351,5.351,0,0,1,107.778,17.1Zm0-1.185a3.812,3.812,0,0,0,1.965-.51,3.525,3.525,0,0,0,1.38-1.455,4.54,4.54,0,0,0,.51-2.19,4.486,4.486,0,0,0-.51-2.19,3.555,3.555,0,0,0-1.365-1.455,4.1,4.1,0,0,0-3.96,0,3.656,3.656,0,0,0-1.38,1.455,4.6,4.6,0,0,0-.5,2.19,4.653,4.653,0,0,0,.5,2.19,3.656,3.656,0,0,0,1.38,1.455A3.893,3.893,0,0,0,107.778,15.92Z"/>
    <path id="Path_3" data-name="Path 3" d="M3.653,22.121V27H3.016V22.121Zm4.089,0v.518H6.411V27H5.774V22.639H4.437v-.518Zm4.2,4.928a2.149,2.149,0,0,1-.868-.168,1.483,1.483,0,0,1-.6-.476,1.237,1.237,0,0,1-.224-.707h.679a.916.916,0,0,0,.28.581,1.041,1.041,0,0,0,.728.231,1.056,1.056,0,0,0,.714-.224.744.744,0,0,0,.266-.588.663.663,0,0,0-.154-.455.983.983,0,0,0-.385-.266,6,6,0,0,0-.623-.2,5.66,5.66,0,0,1-.777-.252,1.291,1.291,0,0,1-.5-.392,1.192,1.192,0,0,1-.2-.728,1.256,1.256,0,0,1,.2-.707,1.327,1.327,0,0,1,.567-.476,2.033,2.033,0,0,1,.847-.168,1.752,1.752,0,0,1,1.12.343,1.263,1.263,0,0,1,.5.91h-.7a.742.742,0,0,0-.294-.49,1.033,1.033,0,0,0-.686-.217.983.983,0,0,0-.651.21.7.7,0,0,0-.252.574.635.635,0,0,0,.147.434,1.045,1.045,0,0,0,.371.259q.224.084.623.2a5.452,5.452,0,0,1,.777.266,1.255,1.255,0,0,1,.5.4,1.145,1.145,0,0,1,.21.728,1.284,1.284,0,0,1-.189.672,1.389,1.389,0,0,1-.56.511A1.848,1.848,0,0,1,11.939,27.049Zm4.234.014a1.984,1.984,0,0,1-.98-.245,1.781,1.781,0,0,1-.686-.693,2.181,2.181,0,0,1-.245-1.05,2.077,2.077,0,0,1,.252-1.036,1.754,1.754,0,0,1,.7-.693,2.111,2.111,0,0,1,1.974,0,1.72,1.72,0,0,1,.693.686,2.217,2.217,0,0,1-.007,2.093,1.8,1.8,0,0,1-.707.693A2.037,2.037,0,0,1,16.173,27.063Zm0-.56a1.345,1.345,0,0,0,.644-.161,1.2,1.2,0,0,0,.483-.483,1.524,1.524,0,0,0,.189-.784,1.57,1.57,0,0,0-.182-.784,1.168,1.168,0,0,0-.476-.476,1.305,1.305,0,0,0-.637-.161,1.319,1.319,0,0,0-.644.161,1.139,1.139,0,0,0-.462.476,1.623,1.623,0,0,0-.175.784,1.7,1.7,0,0,0,.168.791,1.185,1.185,0,0,0,.462.483A1.311,1.311,0,0,0,16.173,26.5Zm3.442-4.683V27h-.637V21.82ZM24.1,23.164V27h-.637v-.567a1.259,1.259,0,0,1-.511.462,1.574,1.574,0,0,1-.714.161,1.748,1.748,0,0,1-.805-.182,1.393,1.393,0,0,1-.567-.56,1.858,1.858,0,0,1-.2-.9V23.164h.63v2.163a1.236,1.236,0,0,0,.287.875,1.032,1.032,0,0,0,.784.3,1.047,1.047,0,0,0,.805-.315,1.3,1.3,0,0,0,.294-.917V23.164Zm1.853.525V25.95a.551.551,0,0,0,.119.4.6.6,0,0,0,.413.112h.469V27h-.574a1.142,1.142,0,0,1-.8-.245,1.051,1.051,0,0,1-.266-.8V23.689h-.5v-.525h.5V22.2h.637v.966h1v.525Zm2.1-1.148a.434.434,0,1,1,0-.868.388.388,0,0,1,.294.126.439.439,0,0,1,0,.616A.388.388,0,0,1,28.056,22.541Zm.308.623V27h-.637V23.164Zm2.759,3.9a1.984,1.984,0,0,1-.98-.245,1.781,1.781,0,0,1-.686-.693,2.181,2.181,0,0,1-.245-1.05,2.077,2.077,0,0,1,.252-1.036,1.754,1.754,0,0,1,.7-.693,2.111,2.111,0,0,1,1.974,0,1.72,1.72,0,0,1,.693.686,2.217,2.217,0,0,1-.007,2.093,1.8,1.8,0,0,1-.707.693A2.037,2.037,0,0,1,31.123,27.063Zm0-.56a1.345,1.345,0,0,0,.644-.161,1.2,1.2,0,0,0,.483-.483,1.524,1.524,0,0,0,.189-.784,1.57,1.57,0,0,0-.182-.784,1.168,1.168,0,0,0-.476-.476,1.305,1.305,0,0,0-.637-.161,1.319,1.319,0,0,0-.644.161,1.139,1.139,0,0,0-.462.476,1.623,1.623,0,0,0-.175.784,1.7,1.7,0,0,0,.168.791,1.185,1.185,0,0,0,.462.483A1.311,1.311,0,0,0,31.123,26.5ZM35.8,23.094a1.548,1.548,0,0,1,1.134.427,1.618,1.618,0,0,1,.434,1.218V27h-.63V24.83a1.221,1.221,0,0,0-.287-.875,1.02,1.02,0,0,0-.784-.308,1.061,1.061,0,0,0-.805.315,1.3,1.3,0,0,0-.294.917V27h-.637V23.164h.637v.546a1.27,1.27,0,0,1,.511-.455A1.618,1.618,0,0,1,35.8,23.094Zm3.966,3.969a2.025,2.025,0,0,1-.791-.147,1.375,1.375,0,0,1-.553-.42,1.136,1.136,0,0,1-.224-.623h.658a.649.649,0,0,0,.266.469,1.041,1.041,0,0,0,.637.182.922.922,0,0,0,.574-.161.492.492,0,0,0,.21-.406.393.393,0,0,0-.224-.371,3,3,0,0,0-.693-.245,5.7,5.7,0,0,1-.7-.224,1.33,1.33,0,0,1-.462-.343.92.92,0,0,1-.189-.6.907.907,0,0,1,.175-.539,1.162,1.162,0,0,1,.5-.385,1.752,1.752,0,0,1,.735-.147,1.569,1.569,0,0,1,1.029.322,1.16,1.16,0,0,1,.42.882h-.637a.654.654,0,0,0-.245-.483.887.887,0,0,0-.588-.182.912.912,0,0,0-.546.147.454.454,0,0,0-.2.385.441.441,0,0,0,.119.315,1.025,1.025,0,0,0,.308.2q.189.07.518.161a5.106,5.106,0,0,1,.672.224,1.114,1.114,0,0,1,.441.322.86.86,0,0,1,.2.567.971.971,0,0,1-.175.567,1.188,1.188,0,0,1-.5.4A1.778,1.778,0,0,1,39.763,27.063Z"/>
  </g>
</svg>
